<?xml version="1.0" encoding="utf-8"?>
<!-- Generator: Adobe Illustrator 16.0.0, SVG Export Plug-In . SVG Version: 6.00 Build 0)  -->
<!DOCTYPE svg PUBLIC "-//W3C//DTD SVG 1.1//EN" "http://www.w3.org/Graphics/SVG/1.1/DTD/svg11.dtd">
<svg version="1.1" id="Layer_1" xmlns="http://www.w3.org/2000/svg" xmlns:xlink="http://www.w3.org/1999/xlink" x="0px" y="0px"
	 width="318.92px" height="350px" viewBox="0 0 318.92 350" enable-background="new 0 0 318.92 350" xml:space="preserve">
<path fill-rule="evenodd" clip-rule="evenodd" fill="white" d="M149.772,174.334c0.656-5.38,1.057-11.093,2.148-16.671
	c0.654-3.35,3.682-5.587,7.895-4.867c19.6,3.346,37.032-12.472,36.182-31.371c-0.236-5.209-1.625-9.944-3.861-14.535
	c-1.523-3.129-0.537-6.728,2.654-8.53c8.969-5.063,18.479-8.663,28.709-10.214c1.352-0.205,2.699-0.448,4.055-0.588
	c4.102-0.422,7.039,1.909,7.576,5.969c2.246,16.937,18.963,28.86,35.82,25.917c7.072-1.235,12.855-4.332,17.787-9.384
	c2.619-2.682,6.279-2.647,9.078-0.065c8.504,7.838,15.193,17.021,20.219,27.423c1.805,3.734,0.543,7.521-3.211,9.352
	c-17.953,8.752-22.971,32.185-9.84,47.99c2.598,3.127,6.307,5.477,9.834,7.646c3.992,2.453,5.182,5.664,3.094,9.932
	c-3.527,7.203-7.842,13.893-13.02,19.994c-2.182,2.568-4.553,5-7.01,7.305c-2.629,2.459-6.795,2.184-9.141-0.354
	c-5.855-6.338-13.295-9.387-21.734-9.486c-11.15-0.129-20.029,4.688-26.451,13.807c-2.68,3.801-4.178,8.135-4.803,12.744
	c-0.57,4.193-3.541,6.619-7.707,6.113c-11.309-1.375-22.029-4.609-31.988-10.217c-4.359-2.455-5.258-5.473-2.932-9.846
	c5.379-10.109,3.873-24.033-3.25-33.053c-6.158-7.799-14.16-11.672-23.939-12.068c-1.984-0.082-4.012,0.211-5.985,0.545
	c-4.534,0.771-7.749-2.332-8.204-6.143C151.075,186.023,150.456,180.359,149.772,174.334z M241.328,213.76
	c20.928-0.309,37.096-16.932,36.76-37.799c-0.316-19.609-17.365-36.053-37.115-35.793c-20.797,0.275-36.93,17.007-36.602,37.959
	C204.678,197.625,221.711,214.051,241.328,213.76z"/>
<path fill-rule="evenodd" clip-rule="evenodd" fill="white" d="M85.982,350c-1.67-0.084-3.845-0.139-6.011-0.313
	c-4.011-0.326-6.617-3.287-6.362-7.336c0.702-11.191-3.659-20.156-12.368-26.869c-10.002-7.707-24.473-8.574-35.571-1.326
	c-4.37,2.854-7.671,2.041-10.594-2.338c-4.363-6.537-7.908-13.479-10.56-20.857c-1.14-3.172-2.056-6.439-2.84-9.717
	c-0.842-3.51,1.427-7.037,4.77-7.803c8.49-1.947,14.941-6.859,19.245-14.248c5.653-9.707,5.898-19.881,1.029-30.025
	c-1.969-4.1-4.936-7.496-8.591-10.26c-3.227-2.441-3.799-6.367-1.384-9.574c6.899-9.164,15.107-16.896,25.021-22.744
	c4.19-2.471,7.287-1.729,9.818,2.361c6.058,9.789,18.92,15.496,30.451,13.783c9.724-1.441,17.038-6.381,22.215-14.594
	c1.103-1.75,1.834-3.744,2.649-5.664c1.609-3.793,5.152-5.445,9.054-4.041c10.683,3.842,20.493,9.225,29.114,16.674
	c3.318,2.867,3.499,6.582,0.729,9.973c-11.654,14.26-8.323,35.436,6.409,45.279c5.239,3.5,10.958,5.25,17.177,5.594
	c3.646,0.203,6.223,2.824,6.178,6.686c-0.117,10.213-1.752,20.172-5.465,29.736c-0.549,1.42-1.08,2.852-1.725,4.23
	c-1.609,3.438-5.141,4.754-8.692,3.299c-15.914-6.52-34.368,1.771-40.425,17.904c-2.521,6.709-2.77,13.289-0.82,20.092
	c1.053,3.676-0.848,6.893-4.586,8.057C104.936,348.736,95.802,349.969,85.982,350z M121.068,263.285
	c-0.036-20.154-16.485-36.629-36.61-36.668c-20.298-0.039-36.974,16.309-37.01,36.283c-0.04,20.645,16.283,37.346,36.477,37.322
	C104.594,300.197,121.104,283.781,121.068,263.285z"/>
<path fill-rule="evenodd" clip-rule="evenodd" fill="white" d="M93.473,0.167c0.812,0.104,1.623,0.208,2.434,0.314
	c0.803,0.058,1.604,0.116,2.408,0.174c0.504,0.066,1.012,0.133,1.518,0.202c0.619,0.106,1.242,0.212,1.862,0.318
	c0.507,0.058,1.015,0.113,1.522,0.171c0.943,0.258,1.889,0.518,2.834,0.776c0.345,0.065,0.689,0.13,1.035,0.195
	c0.303,0.084,0.604,0.169,0.904,0.253c0.34,0.107,0.682,0.217,1.021,0.325c2.838,0.643,5.691,1.256,7.307,4.086
	c0.152,0.33,0.306,0.661,0.457,0.993c0.09,0.624,0.182,1.248,0.271,1.87c0.005,0.374,0.009,0.749,0.013,1.123
	c-0.264,0.784-0.527,1.567-0.792,2.352c-0.056,0.345-0.112,0.69-0.169,1.034c-0.092,0.625-0.185,1.25-0.277,1.873
	c-0.063,0.646-0.126,1.292-0.189,1.936c-0.029,1.262-0.06,2.521-0.089,3.78c0.087,0.827,0.175,1.653,0.263,2.48
	c0.063,0.465,0.123,0.93,0.186,1.395c0.09,0.342,0.183,0.685,0.273,1.029c0.224,0.947,0.443,1.896,0.666,2.844
	c0.337,0.907,0.676,1.815,1.012,2.721c4.131,12.009,19.67,21.161,31.86,18.867c2.896-0.547,5.786-1.276,8.575-2.222
	c3.417-1.157,7.118,0.082,8.553,3.374c4.75,10.902,7.398,22.277,7.367,34.21c-0.012,3.975-2.49,6.387-6.527,6.542
	c-16.046,0.62-29.187,13.836-29.835,29.853c-0.332,8.131,2.305,15.126,7.388,21.364c2.513,3.083,2.108,7.125-0.901,9.671
	c-8.666,7.331-18.215,13.172-28.977,16.93c-4.336,1.515-7.541-0.111-9.174-4.357c-6.617-17.215-26.536-24.86-42.462-16.999
	c-5.653,2.792-10.004,6.886-13.405,12.1c-1.969,3.021-5.588,3.907-8.898,1.937c-8.779-5.227-16.594-11.613-23.008-19.625
	c-0.952-1.189-1.939-2.36-2.81-3.609c-2.09-3.006-1.483-6.797,1.379-9.019c13.872-10.77,15.851-30.669,4.652-44.286
	c-4.452-5.411-9.933-8.796-16.603-10.495c-3.879-0.988-5.904-4.173-4.828-8.092c1.191-4.331,2.659-8.586,4.007-12.876
	c0.139-0.438,0.277-0.876,0.417-1.314c2.369-4.607,4.736-9.215,7.104-13.821c0.237-0.388,0.475-0.774,0.712-1.162
	c1.01-1.299,2.02-2.599,3.028-3.898c0.812-0.328,1.624-0.658,2.434-0.988c2.248-0.4,4.108,0.351,6.137,1.393
	c3.456,1.772,7.196,2.994,10.816,4.447c0.487,0.053,0.974,0.105,1.459,0.159c1.287,0.109,2.576,0.219,3.862,0.328
	c0.475-0.014,0.95-0.027,1.427-0.041c0.646-0.092,1.29-0.185,1.936-0.279c1.065-0.109,2.128-0.22,3.192-0.33
	c0.53-0.174,1.06-0.349,1.589-0.523c1.562-0.477,3.124-0.954,4.685-1.432c0.226-0.108,0.449-0.215,0.675-0.323
	c1.046-0.566,2.092-1.13,3.136-1.695c0.137,0.003,0.226-0.06,0.268-0.19c0.396-0.256,0.793-0.513,1.191-0.769
	c0.13,0,0.219-0.062,0.265-0.185c0.383-0.273,0.766-0.547,1.15-0.82c1.747-1.769,3.495-3.538,5.241-5.307
	c0.273-0.377,0.545-0.757,0.819-1.135c1.41-2.475,2.82-4.951,4.229-7.425c0.123-0.443,0.246-0.883,0.371-1.325
	c0.077-0.301,0.155-0.602,0.234-0.904c0.067-0.343,0.135-0.69,0.204-1.036c0.085-0.301,0.172-0.6,0.26-0.9
	c0.063-0.346,0.126-0.689,0.189-1.036c0.106-0.62,0.214-1.242,0.321-1.862c0.038-0.648,0.077-1.294,0.116-1.941
	c0.009-0.313,0.019-0.627,0.029-0.942c0.01-0.333,0.019-0.668,0.029-1.003c-0.005-0.309-0.008-0.62-0.012-0.93
	c-0.01-0.998-0.021-1.996-0.031-2.996c0.767-1.293,1.536-2.589,2.304-3.883c1.135-0.484,2.271-0.965,3.406-1.449
	C79.42,0.106,81.348,0.053,83.277,0c2.28,0,4.56,0.002,6.838,0.003C91.234,0.057,92.355,0.113,93.473,0.167z M86.729,47.487
	C66.666,47.192,49.982,63.561,49.771,83.75c-0.217,20.491,16.066,37.166,36.465,37.348c20.354,0.181,36.748-16.032,37.134-36.719
	C123.745,64.323,107.325,47.792,86.729,47.487z"/>
</svg>
